<?xml version="1.0" encoding="UTF-8" standalone="no"?>
<svg
   xmlns:dc="http://purl.org/dc/elements/1.1/"
   xmlns:cc="http://creativecommons.org/ns#"
   xmlns:rdf="http://www.w3.org/1999/02/22-rdf-syntax-ns#"
   xmlns:svg="http://www.w3.org/2000/svg"
   xmlns="http://www.w3.org/2000/svg"
   xmlns:sodipodi="http://sodipodi.sourceforge.net/DTD/sodipodi-0.dtd"
   xmlns:inkscape="http://www.inkscape.org/namespaces/inkscape"
   width="256"
   height="256"
   id="svg2"
   version="1.1"
   inkscape:version="0.48.4 r9939"
   sodipodi:docname="floppy-st.svg">
  <metadata
     id="metadata136">
    <rdf:RDF>
      <cc:Work
         rdf:about="">
        <dc:format>image/svg+xml</dc:format>
        <dc:type
           rdf:resource="http://purl.org/dc/dcmitype/StillImage" />
        <dc:title />
      </cc:Work>
    </rdf:RDF>
  </metadata>
  <defs
     id="defs134" />
  <sodipodi:namedview
     pagecolor="#ffffff"
     bordercolor="#666666"
     borderopacity="1"
     objecttolerance="10"
     gridtolerance="10"
     guidetolerance="10"
     inkscape:pageopacity="0"
     inkscape:pageshadow="2"
     inkscape:window-width="1149"
     inkscape:window-height="879"
     id="namedview132"
     showgrid="false"
     inkscape:zoom="1.4142136"
     inkscape:cx="202.52761"
     inkscape:cy="250.87326"
     inkscape:window-x="135"
     inkscape:window-y="0"
     inkscape:window-maximized="0"
     inkscape:current-layer="svg2" />
  <path
     style="fill:#3d4348; stroke:none;"
     d="M14.6667 2.33333L15.3333 2.66667L14.6667 2.33333z"
     id="path6" />
  <path
     style="fill:#131b22;stroke:none"
     d="m 14.915254,3.0847457 0,0.9322035 17.257146,-0.211615 z"
     id="path8"
     inkscape:connector-curvature="0"
     sodipodi:nodetypes="cccc" />
  <path
     style="fill:#3d4348;stroke:none"
     d="m 31,2 1,1 -1,-1 m 36.132583,76.050253 3.740038,5.656854 -2.728803,-79.5632887 125.616482,0 L 194,57 191.418,86.444912 195.86291,82.285954 195.04794,7.0016827 194.36033,2.8355761 167.66442,3.0067283 95.232969,2.9108494 66.826572,3.5501855 67,25 z"
     id="path10"
     inkscape:connector-curvature="0"
     sodipodi:nodetypes="ccccccccccccccccc" />
  <path
     style="fill:#0f2a41;stroke:none"
     d="m 209.19975,3.2241116 -5.68091,1.8021578 30.5664,0.2989389 13.51702,15.3316467 C 244.90256,0.59347845 227.52275,3.0991116 209.19975,3.2241116 z"
     id="path12"
     inkscape:connector-curvature="0"
     sodipodi:nodetypes="ccccc" />
  <path
     style="fill:#3d4348; stroke:none;"
     d="M236 2L237 3L236 2z"
     id="path14" />
  <path
     style="fill:#0f2a41;stroke:none"
     d="m 14.983051,3.2033899 -4,0.8644067 L 15,4 z"
     id="path16"
     inkscape:connector-curvature="0"
     sodipodi:nodetypes="cccc" />
  <path
     style="fill:#1b3f5e;stroke:none"
     d="m 11,4 0,61 0,126 0,45 c 0.05828,19.65864 -3.0421253,18.22346 24.474576,18.01695 L 35.20339,125.76271 c -0.0039,-1.86438 0.686866,-15.36378 2.214656,-16.8983 C 40.204585,104.5242 42.934637,105 77,105 l 107,0 c 22.39495,0.13316 40.06096,-2.01626 39.75,16.375 l -0.125,83.5625 c -0.01,6.64999 -2.60145,41.99072 0.56564,47.4423 3.11144,3.04494 19.59436,0.6302 22.64236,-0.5468 C 249.724,252.1245 249,235.931 249,232 l 0,-63 0,-119 C 249,32.9793 251.25048,12.621167 236.81564,5.8756844 231.10814,3.5534179 210.07189,2.9740301 204.27589,4.8220001 200.40489,6.0562701 199.658,8 195,8 l 0.28764,61.602187 c 0.0372,7.960065 0.67569,10.656724 -2.56855,15.247266 C 187.10909,90.196853 167.54099,88.011956 160,88 L 69.287637,87.856182 c -7.704991,-0.01222 -33.102032,1.32364 -34.71464,-3 -2.922293,-5.207465 -1.3333,-17.0697 -1.3333,-23 0,-19.1118 1.275672,-38.140176 -0.740445,-58.0905621 z"
     id="path18"
     inkscape:connector-curvature="0"
     sodipodi:nodetypes="cccccscsccsccscscccscsscscc" />
  <path
     style="fill:#0f2a41;stroke:none"
     d="m 32.335576,3.8149705 c 1.5648,19.8202005 0.376787,41.9174775 0.376787,61.9175775 0,5.5916 -0.341172,15.933038 1.668876,19.189903 2.052716,3.326 16.134838,3.199243 19.591072,3.178014 L 70.328848,88 159.88982,88.114231 c 10.11981,0.01291 27.06135,2.188839 32.65249,-3.079747 l -21.52314,2.227699 c -11.0501,-0.18429 -29.50565,-0.01499 -42.52295,-0.02245 C 103.16289,87.22512 89.64263,87.342739 71.048781,87 60.313213,86.802112 43.919068,87.842848 37.520606,85.881239 c -3.41,-4.21515 -3.770776,-10.95289 -3.741577,-17.013822 L 34,23 C 34.02522,17.764961 32.2636,10.0647 37,7 L 37,6.2876367 34.486123,6.86291 33.13709,6.9310343 32.86291,3.9587889 m 7.082422,3.0891505 C 48.052332,2.951275 57.563411,4.2730761 66.901651,3.8895606 61.885296,2.7123625 41.872656,3.0482311 39.945332,7.0479394 z"
     id="path20"
     inkscape:connector-curvature="0"
     sodipodi:nodetypes="cssscsccsscsscccccccc" />
  <path
     style="fill:#3d4348; stroke:none;"
     d="M203 3L204 4L203 3M237 3L238 4L237 3z"
     id="path22" />
  <path
     style="fill:#131b22; stroke:none;"
     d="M33.3333 4.66667L33.6667 5.33333L33.3333 4.66667z"
     id="path24" />
  <path
     style="fill:#1b3f5e;stroke:none"
     d="M 75.335155,87.110439 C 70.272332,83.970028 67.447331,79.358859 67.373699,68.457107 L 66.9375,3.875 C 57.9173,3.875 49.1022,2.89902 41,6.5 39.0123,7.38342 35.714623,6.0668472 34.5,8.16667 32.885852,10.957184 33.971721,19.687564 33.904121,31.328006 l -0.21348,36.760382 C 33.664861,72.527314 33.128543,80.863403 35.5,84.6667 c 2.618168,4.198967 32.230555,2.443739 39.835155,2.443739 z"
     id="path26"
     inkscape:connector-curvature="0"
     sodipodi:nodetypes="cscsssssc" />
  <path
     style="fill:#60605e;stroke:none"
     d="m 68,4 0,59 c 0,5.1602 -0.482191,13.329039 2.846709,20.572803 3.855187,4.752493 -4.051564,3.660153 47.410651,3.810713 l 49.42164,0.14459 c 5.90997,0.01729 18.10764,1.530694 24.33931,-2.606011 3.554,-4.6132 2.03421,-16.657576 2.02963,-22.257674 L 194,4 z"
     id="path28"
     inkscape:connector-curvature="0"
     sodipodi:nodetypes="cscsscscc" />
  <path
     style="fill:#0f2a41; stroke:none;"
     d="M202 4L203 5L202 4z"
     id="path30" />
  <path
     style="fill:#3d4348; stroke:none;"
     d="M238 4L239 5L238 4z"
     id="path32" />
  <path
     style="fill:#375571;stroke:none"
     d="M 10.40678,6.4915254 10,193 l 0.271186,54.0339 c 1.15977,8.21126 0.293379,7.238 24.745763,7.23729 l 0.0678,-0.59322 c -5.3374,0 -19.796487,0.52927 -22.644068,-1.80758 C 11.419742,249.83293 11,248.46566 11,243.64407 L 11,198 11,67 c 0,-18.9206 0.02895,-45.246432 -0.01695,-62.8813559 z"
     id="path34"
     inkscape:connector-curvature="0"
     sodipodi:nodetypes="ccccccscscc" />
  <path
     style="fill:#0f2a41; stroke:none;"
     d="M201 5L202 6L201 5z"
     id="path36" />
  <path
     style="fill:#3d4348; stroke:none;"
     d="M239 5L240 6L239 5z"
     id="path38" />
  <path
     style="fill:#131b22;stroke:none"
     d="M 37,6.2876367 37,7 40.232969,6.8561817 z"
     id="path40"
     inkscape:connector-curvature="0"
     sodipodi:nodetypes="cccc" />
  <path
     style="fill:#0f2a41;stroke:none"
     d="M 203.92126,4.8822014 195,7 l 0,1 c 2.096,0 3.01348,1.23532 8.92126,-3.1177986 z"
     id="path42"
     inkscape:connector-curvature="0"
     sodipodi:nodetypes="cccc" />
  <path
     style="fill:#3d4348; stroke:none;"
     d="M240 6L241 7L240 6M241 7L242 8L241 7M242 8L243 9L242 8M243 9L244 10L243 9M244 10L245 11L244 10M245 11L246 12L245 11M246 12L247 13L246 12M247 13L248 14L247 13z"
     id="path44" />
  <path
     style="fill:#375571;stroke:none"
     d="M 143.39775,15.486136 143,16 c 6.814,0 28.79674,-0.227485 31,2 0.90334,-3.347812 -0.92546,-2.516242 -3.52513,-2.558058 z"
     id="path46"
     inkscape:connector-curvature="0"
     sodipodi:nodetypes="cccsc" />
  <path
     style="fill:#3d4348;stroke:none"
     d="m 248,15 1,1 -1,-1 M 143.00352,15.885263 142.7513,40.988738 143,39 z"
     id="path48"
     inkscape:connector-curvature="0"
     sodipodi:nodetypes="ccccccc" />
  <path
     style="fill:#1b3f5e; stroke:none;"
     d="M143 16L143 81L174 81L174 16L143 16z"
     id="path50" />
  <path
     style="fill:#375571; stroke:none;"
     d="M19 18L15 31L16 31L19 18z"
     id="path52" />
  <path
     style="fill:#3d4348;stroke:none"
     d="m 174,18 0,63.160311 0.46967,-0.662913 L 175,36 z"
     id="path54"
     inkscape:connector-curvature="0"
     sodipodi:nodetypes="ccccc" />
  <path
     style="fill:#909daa;stroke:none"
     d="m 19.389831,19.135593 3.576271,11.779661 0.79661,0 -4.508475,-12.661017"
     id="path58"
     inkscape:connector-curvature="0"
     sodipodi:nodetypes="cccc" />
  <path
     style="fill:#0f2a41;stroke:none"
     d="m 15,31 2.237288,0.728814 0.237288,7 L 22,38.525424 22,38 l -4,0 0,-7 z"
     id="path60"
     inkscape:connector-curvature="0"
     sodipodi:nodetypes="cccccccc" />
  <path
     style="fill:#375571;stroke:none"
     d="m 21,31 0.881356,7.474576 -0.152542,-6.779661 2.203389,-0.711864 z"
     id="path62"
     inkscape:connector-curvature="0"
     sodipodi:nodetypes="ccccc" />
  <path
     style="fill:#0f2a41; stroke:none;"
     d="M142 39L143 40L142 39z"
     id="path64" />
  <path
     style="fill:#3d4348; stroke:none;"
     d="M142 40L143 41L142 40z"
     id="path66" />
  <path
     style="fill:#0f2a41; stroke:none;"
     d="M142 41L143 42L142 41z"
     id="path68" />
  <path
     style="fill:#3d4348; stroke:none;"
     d="M142 42L143 43L142 42z"
     id="path70" />
  <path
     style="fill:#0f2a41;stroke:none"
     d="m 143.01647,39.022524 0.0884,41.817165 -0.4584,-0.662912 c 0.0884,-11.20375 -0.71761,-36.307531 0.37002,-41.154253 z"
     id="path72"
     inkscape:connector-curvature="0"
     sodipodi:nodetypes="cccc" />
  <path
     style="fill:#131b22; stroke:none;"
     d="M142 80L143 81L142 80z"
     id="path74" />
  <path
     style="fill:#3d4348; stroke:none;"
     d="M142 81L143 82L142 81z"
     id="path76" />
  <path
     style="fill:#0f2a41;stroke:none"
     d="M 143.66291,81.53033 143,80.895145 l 31.08839,0.04419 c 0.12425,0.83945 -22.56434,0.458407 -30.42548,0.590995 z"
     id="path78"
     inkscape:connector-curvature="0"
     sodipodi:nodetypes="cccc" />
  <path
     style="fill:#375571; stroke:none;"
     d="M68 83L69 84L68 83M69 84L70 85L69 84z"
     id="path80" />
  <path
     style="fill:#0f2a41; stroke:none;"
     d="M193 84L194 85L193 84z"
     id="path82" />
  <path
     style="fill:#375571; stroke:none;"
     d="M70 85L71 86L70 85z"
     id="path84" />
  <path
     style="fill:#3d4348; stroke:none;"
     d="M192 85L193 86L192 85z"
     id="path86" />
  <path
     style="fill:#375571; stroke:none;"
     d="M71 86L72 87L71 86z"
     id="path88" />
  <path
     style="fill:#3d4348; stroke:none;"
     d="M72.6667 86.3333L73.3333 86.6667L72.6667 86.3333z"
     id="path90" />
  <path
     style="fill:#375571;stroke:none"
     d="M 37.355932,108.79661 C 40.336507,106.56061 67.0566,106 81,106 l 98,0 c 9.621,0 35.32239,0.23286 41.46783,4.12684 C 221.92151,117.36623 223,133.974 223,142 l 0,76 0,28.74004 c 0,2.247 -1.98966,5.70937 0.10634,7.21837 1.78013,0.89848 24.78538,0.67677 24.18655,-2.46101 -1.38707,0.46506 -13.38926,3.18158 -22.17417,1.24264 -2.98109,-0.60653 -1.54829,-13.42091 -1.51647,-20.63084 L 224,142 c 0.0359,-8.12192 1.278,-27.8995 -3,-33.125 C 215.57,102.821 200.635,105 193,105 l -83,0 -53.644068,-0.20339 c -3.602032,-0.0137 -17.198808,-0.81986 -19,4 z"
     id="path92"
     inkscape:connector-curvature="0"
     sodipodi:nodetypes="csscscscccsscscsc" />
  <path
     style="fill:#c4ced2; stroke:none;"
     d="M40 106L41 107L40 106z"
     id="path94" />
  <path
     style="fill:#f0f2f0;stroke:none"
     d="m 36,254 187,0 c -0.002,-6.81112 -0.31266,-6.90059 -0.35225,-19.38353 L 222.375,148.625 l -0.25,-27.6875 c -0.0329,-3.64085 1.0205,-11.004 -4.98925,-13.40625 C 211.68625,104.58225 192.842,106 185,106 l -108,0 -28,0 c -4.0741,0 -8.9115,-0.752 -11.6667,3 C 35.0416,112.121 36,117.359 36,121 l 0,27 z"
     id="path96"
     inkscape:connector-curvature="0"
     sodipodi:nodetypes="ccscscscscscc" />
  <path
     style="fill:#c4ced2; stroke:none;"
     d="M217 106L218 107L217 106z"
     id="path98" />
  <path
     style="fill:#909daa; stroke:none;"
     d="M218 106L219 107L218 106M38 107L39 108L38 107z"
     id="path100" />
  <path
     style="fill:#c4ced2; stroke:none;"
     d="M219 107L220 108L219 107M37 108L38 109L37 108M220 108L221 109L220 108z"
     id="path102" />
  <path
     style="fill:#909daa; stroke:none;"
     d="M36 109L37 110L36 109M221 109L223 111L221 109z"
     id="path104" />
  <path
     style="fill:#375571; stroke:none;"
     d="M35 110L36 111L35 110z"
     id="path106" />
  <path
     style="fill:#909daa;stroke:none"
     d="m 35,208 0.288136,46.0678 0.847457,0 L 36,222 36.20339,111.23729 C 34.642726,110.82784 35.049356,151.39478 35,208 z"
     id="path110"
     inkscape:connector-curvature="0"
     sodipodi:nodetypes="cccccc" />
  <path
     style="fill:#c4ced2;stroke:none"
     d="M 222.02589,113.69454 222.53033,251.20451 223,253.90035 223,149 222.63572,120.89829 z"
     id="path112"
     inkscape:connector-curvature="0"
     sodipodi:nodetypes="cccccc" />
  <path
     style="fill:#909daa;stroke:none"
     d="M 17,225.53033 17,226 l 12,0 z"
     id="path114"
     inkscape:connector-curvature="0"
     sodipodi:nodetypes="cccc" />
  <path
     style="fill:#375571;stroke:none"
     d="M 29.067797,225.94915 29,235 l 0.558058,-0.0884 z"
     id="path116"
     inkscape:connector-curvature="0"
     sodipodi:nodetypes="cccc" />
  <path
     style="fill:#1a1a1a;stroke:none"
     d="M17 226L17 235L29 235L29 226L17 226z"
     id="path118" />
  <path
     style="fill:#0f2a41;stroke:none"
     d="m 17,235 12,0.86441 0,-0.81356 z"
     id="path120"
     inkscape:connector-curvature="0"
     sodipodi:nodetypes="cccc" />
  <path
     style="fill:#909daa; stroke:none;"
     d="M10.3333 250.667L10.6667 251.333L10.3333 250.667z"
     id="path122" />
  <path
     style="fill:#375571; stroke:none;"
     d="M248.333 250.667L248.667 251.333L248.333 250.667z"
     id="path124" />
  <path
     style="fill:#909daa; stroke:none;"
     d="M11 252L12 253L11 252M223 252L224 253L223 252M12.6667 253.333L13.3333 253.667L12.6667 253.333z"
     id="path126" />
  <path
     style="fill:#909daa;stroke:none"
     d="m 226.97227,254.41421 7.99915,0.0277 6.50431,-0.70711 z"
     id="path130"
     inkscape:connector-curvature="0"
     sodipodi:nodetypes="cccc" />
  <path
     id="path3378"
     d="m 75.575114,198.80007 c 3e-4,2.741 -0.7302,6.965 1.0278,9.297 2.3307,3.092 8.4752,3.378 11.9722,3.949 11.429696,1.868 29.159996,1.445 34.386996,-11.25 1.164,-2.827 1.588,-5.956 1.584,-8.996 -0.032,-24.887 -27.739696,-13.504 -37.227896,-28.044 -4.0966,-6.278 1.35,-12.643 7.2577,-14.823 8.523596,-3.144 18.059196,0.804 25.999196,3.867 -0.016,-20.434 -39.024896,-16.15 -44.199796,1 -0.7727,2.56 -0.9119,5.344 -0.7061,8 1.7032,21.982 28.188296,11.831 37.162896,26.015 3.979,6.29 -1.112,13.451 -7.257,15.721 -10.047596,3.712 -20.787896,-0.958 -29.999996,-4.736 m 54.999996,-57 0,8 25,0 0,62 10,0 0,-62 25,0 0,-8 -60,0 z"
     style="fill:#ff0000;stroke:none"
     inkscape:connector-curvature="0" />
</svg>
