<svg xmlns:osb="http://www.openswatchbook.org/uri/2009/osb" xmlns:dc="http://purl.org/dc/elements/1.1/" xmlns:cc="http://creativecommons.org/ns#" xmlns:rdf="http://www.w3.org/1999/02/22-rdf-syntax-ns#" xmlns:svg="http://www.w3.org/2000/svg" xmlns="http://www.w3.org/2000/svg" xmlns:xlink="http://www.w3.org/1999/xlink" xmlns:sodipodi="http://sodipodi.sourceforge.net/DTD/sodipodi-0.dtd" xmlns:inkscape="http://www.inkscape.org/namespaces/inkscape" id="svg2" version="1.1" inkscape:version="0.48.4 r9939" width="256" height="256">
  <metadata id="metadata8">
    <rdf:RDF>
      <cc:Work rdf:about="">
        <dc:format>image/svg+xml</dc:format>
        <dc:type rdf:resource="http://purl.org/dc/dcmitype/StillImage"/>
        <dc:title/>
      </cc:Work>
    </rdf:RDF>
  </metadata>
  <defs id="defs6">
    <linearGradient id="linearGradient5300">
      <stop style="stop-color:#282850;stop-opacity:1;" offset="0" id="stop5302"/>
      <stop style="stop-color:#6060a0;stop-opacity:1;" offset="1" id="stop5304"/>
    </linearGradient>
    <linearGradient id="linearGradient5290">
      <stop style="stop-color:#000030;stop-opacity:1;" offset="0" id="stop5292"/>
      <stop style="stop-color:#101060;stop-opacity:1;" offset="1" id="stop5294"/>
    </linearGradient>
    <linearGradient id="linearGradient5280">
      <stop style="stop-color:#000032;stop-opacity:1;" offset="0" id="stop5282"/>
      <stop style="stop-color:#101040;stop-opacity:1;" offset="1" id="stop5284"/>
    </linearGradient>
    <linearGradient id="linearGradient5270">
      <stop style="stop-color:#404080;stop-opacity:1;" offset="0" id="stop5272"/>
      <stop style="stop-color:#000040;stop-opacity:1;" offset="1" id="stop5274"/>
    </linearGradient>
    <linearGradient id="linearGradient5241">
      <stop style="stop-color:#282840;stop-opacity:1;" offset="0" id="stop5243"/>
      <stop style="stop-color:#b4b4d0;stop-opacity:1;" offset="1" id="stop5245"/>
    </linearGradient>
    <linearGradient id="linearGradient5231">
      <stop style="stop-color:#000000;stop-opacity:1;" offset="0" id="stop5233"/>
      <stop style="stop-color:#404040;stop-opacity:1;" offset="1" id="stop5235"/>
    </linearGradient>
    <linearGradient id="linearGradient5221">
      <stop style="stop-color:#acacac;stop-opacity:1;" offset="0" id="stop5223"/>
      <stop style="stop-color:#202020;stop-opacity:1;" offset="1" id="stop5225"/>
    </linearGradient>
    <linearGradient id="linearGradient5209">
      <stop style="stop-color:#000000;stop-opacity:1;" offset="0" id="stop5211"/>
      <stop style="stop-color:#0060e0;stop-opacity:1;" offset="1" id="stop5213"/>
    </linearGradient>
    <linearGradient id="linearGradient3769" osb:paint="solid">
      <stop style="stop-color:#00fb00;stop-opacity:1;" offset="0" id="stop3771"/>
    </linearGradient>
    <linearGradient inkscape:collect="always" xlink:href="#linearGradient5221" id="linearGradient5227" x1="69.9" y1="1.8" x2="191.9" y2="87.9" gradientUnits="userSpaceOnUse"/>
    <linearGradient inkscape:collect="always" xlink:href="#linearGradient5231" id="linearGradient5237" x1="141.2" y1="38.4" x2="176.3" y2="57.3" gradientUnits="userSpaceOnUse"/>
    <linearGradient inkscape:collect="always" xlink:href="#linearGradient5241" id="linearGradient5247" x1="41" y1="105.2" x2="221" y2="254.9" gradientUnits="userSpaceOnUse"/>
    <linearGradient inkscape:collect="always" xlink:href="#linearGradient5270" id="linearGradient5276" x1="9.9" y1="127.9" x2="249.8" y2="127.9" gradientUnits="userSpaceOnUse"/>
    <linearGradient inkscape:collect="always" xlink:href="#linearGradient5280" id="linearGradient5286" x1="32.6" y1="5.9" x2="195.2" y2="87.5" gradientUnits="userSpaceOnUse"/>
    <linearGradient inkscape:collect="always" xlink:href="#linearGradient5290" id="linearGradient5296" x1="17.5" y1="224.9" x2="29.3" y2="236.2" gradientUnits="userSpaceOnUse"/>
    <linearGradient inkscape:collect="always" xlink:href="#linearGradient5300" id="linearGradient5306" x1="17.4" y1="27.8" x2="25" y2="31.3" gradientUnits="userSpaceOnUse"/>
  </defs>
  <path style="color:#000000;fill:#000080;stroke:url(#linearGradient5276);stroke-width:1px;stroke-linecap:butt;stroke-linejoin:miter;stroke-miterlimit:4;stroke-opacity:1;stroke-dasharray:none;stroke-dashoffset:0;marker:none;visibility:visible;display:inline;overflow:visible;enable-background:accumulate" d="m 13.8 1.7 18.4 0 3.1 4.6 6.9 0 2.7 -3.5 148 0 0.1 3.8 6.8 0 4.5 -4 33.1 0.2 11.9 13 0 234 -3.1 4.1 -232.4 0 -3.5 -4.6 0 -244.7 z" id="path5268" inkscape:connector-curvature="0"/>
  <path style="color:#000000;fill:none;stroke:url(#linearGradient5286);stroke-width:1px;stroke-linecap:butt;stroke-linejoin:miter;stroke-miterlimit:4;stroke-opacity:1;stroke-dasharray:none;stroke-dashoffset:0;marker:none;visibility:visible;display:inline;overflow:visible;enable-background:accumulate" d="m 33.5 4.7 0.1 78.4 1.4 2.9 2.8 2 152.9 0 2.3 -2.5 1.9 -2.8 -0 -75.5" id="path5278" inkscape:connector-curvature="0"/>
  <path style="fill:#808080;stroke:url(#linearGradient5227);stroke-width:1.01021373px;stroke-linecap:butt;stroke-linejoin:miter;stroke-opacity:1" d="m 68.1 2.1 0 80.4 6.3 4.5 116.2 -0 3.5 -4.5 -0 -80.4 z" id="path5219" inkscape:connector-curvature="0"/>
  <path style="color:#000000;fill:#000080;stroke:url(#linearGradient5237);stroke-width:1px;stroke-linecap:butt;stroke-linejoin:miter;stroke-miterlimit:4;stroke-opacity:1;stroke-dasharray:none;stroke-dashoffset:0;marker:none;visibility:visible;display:inline;overflow:visible;enable-background:accumulate" d="m 142.7 15.9 0.2 65.4 32 0 -0.4 -65.6 z" id="path5229" inkscape:connector-curvature="0"/>
  <path style="color:#000000;fill:#ececec;stroke:url(#linearGradient5247);stroke-width:1px;stroke-linecap:butt;stroke-linejoin:miter;stroke-miterlimit:4;stroke-opacity:1;stroke-dasharray:none;stroke-dashoffset:0;marker:none;visibility:visible;display:inline;overflow:visible;enable-background:accumulate" d="m 40.7 106 176.8 -0.3 5.2 5.2 0.3 142.9 -186.8 0 0 -143.2 z" id="path5239" inkscape:connector-curvature="0"/>
  <rect style="fill:#000000;fill-rule:evenodd;stroke:url(#linearGradient5296);stroke-width:1px;stroke-linecap:butt;stroke-linejoin:miter;stroke-opacity:1" id="rect5288" width="13" height="10.3" x="16.8" y="225.4" ry="0.5"/>
  <path style="color:#000000;fill:none;stroke:url(#linearGradient5306);stroke-width:1px;stroke-linecap:butt;stroke-linejoin:miter;stroke-miterlimit:4;stroke-opacity:1;stroke-dasharray:none;stroke-dashoffset:0;marker:none;visibility:visible;display:inline;overflow:visible;enable-background:accumulate" d="m 19.5 18.7 4 8.8 0 4 -2 -0 -0 7 -3.9 -0 -0 -6.9 -2 -0 0 -4 z" id="path5298" inkscape:connector-curvature="0"/>
  <path id="path5358" d="m 74.9 201.2 c 0 2.7 -0.7 7 1 9.3 2.3 3.1 8.5 3.4 12 3.9 11.4 1.9 29.2 1.4 34.4 -11.2 1.2 -2.8 1.6 -6 1.6 -9 -0 -24.9 -27.7 -13.5 -37.2 -28 -4.1 -6.3 1.4 -12.6 7.3 -14.8 8.5 -3.1 18.1 0.8 26 3.9 -0 -20.4 -39 -16.1 -44.2 1 -0.8 2.6 -0.9 5.3 -0.7 8 1.7 22 28.2 11.8 37.2 26 4 6.3 -1.1 13.5 -7.3 15.7 -10 3.7 -20.8 -1 -30 -4.7 m 55 -57 0 8 25 0 0 62 10 0 0 -62 25 0 0 -8 -60 0 z" style="fill:#ff0000;stroke:none" inkscape:connector-curvature="0"/>
</svg>
